<svg id="Layer_1" data-name="Layer 1" xmlns="http://www.w3.org/2000/svg" viewBox="0 0 182.32 178.38"><defs><style>.cls-1{fill:#094;}</style></defs><title>virusBg1</title><circle class="cls-1" cx="91.16" cy="93.18" r="54.07"/><rect class="cls-1" x="87.75" y="12.62" width="6.81" height="39.15"/><circle class="cls-1" cx="91.16" cy="12.62" r="12.62"/><rect class="cls-1" x="48.92" y="46.39" width="6.81" height="39.15" transform="translate(-40.72 54.94) rotate(-51.43)"/><circle class="cls-1" cx="28.18" cy="42.95" r="12.62"/><rect class="cls-1" x="37.15" y="97.98" width="6.81" height="39.15" transform="translate(-73.88 172.44) rotate(-102.86)"/><circle class="cls-1" cx="12.63" cy="111.1" r="12.62"/><rect class="cls-1" x="70.14" y="139.35" width="6.81" height="39.15" transform="translate(62 323.21) rotate(-154.29)"/><circle class="cls-1" cx="56.21" cy="165.75" r="12.62"/><rect class="cls-1" x="123.05" y="139.35" width="6.81" height="39.15" transform="translate(300.51 236.44) rotate(154.29)"/><circle class="cls-1" cx="126.11" cy="165.75" r="12.62"/><rect class="cls-1" x="156.05" y="97.98" width="6.81" height="39.15" transform="translate(300.7 -22.55) rotate(102.86)"/><circle class="cls-1" cx="169.69" cy="111.1" r="12.62"/><rect class="cls-1" x="144.27" y="46.39" width="6.81" height="39.15" transform="translate(98.34 -101.43) rotate(51.43)"/><circle class="cls-1" cx="154.14" cy="42.95" r="12.62"/></svg>