<svg id="Layer_1" data-name="Layer 1" xmlns="http://www.w3.org/2000/svg" viewBox="0 0 187.32 183.38"><defs><style>.cls-1{fill:none;stroke:#094;stroke-miterlimit:10;stroke-width:5px;}.cls-2{fill:#094;}</style></defs><title>virusBg2</title><circle class="cls-1" cx="93.66" cy="95.68" r="47.58"/><rect class="cls-2" x="90.25" y="26.48" width="6.81" height="22.99"/><circle class="cls-1" cx="93.66" cy="15.12" r="12.62"/><rect class="cls-2" x="51.34" y="56.2" width="6.81" height="23.39" transform="translate(-38.81 60.05) rotate(-51.43)"/><circle class="cls-1" cx="30.68" cy="45.45" r="12.62"/><rect class="cls-2" x="40.62" y="105.56" width="6.81" height="22.4" transform="translate(-66.36 177.35) rotate(-102.86)"/><circle class="cls-1" cx="15.13" cy="113.6" r="12.62"/><rect class="cls-2" x="71.99" y="143.67" width="6.81" height="22.82" transform="translate(69.69 319.21) rotate(-154.29)"/><circle class="cls-1" cx="58.71" cy="168.25" r="12.62"/><rect class="cls-2" x="121.23" y="143.85" width="6.81" height="22.58" transform="translate(297.9 232.53) rotate(154.29)"/><circle class="cls-1" cx="128.61" cy="168.25" r="12.62"/><rect class="cls-2" x="152.7" y="105.46" width="6.81" height="22.66" transform="translate(298.37 -17.72) rotate(102.86)"/><circle class="cls-1" cx="172.19" cy="113.6" r="12.62"/><rect class="cls-2" x="141.75" y="56.43" width="6.81" height="23.1" transform="translate(101.46 -96.21) rotate(51.43)"/><circle class="cls-1" cx="156.64" cy="45.45" r="12.62"/></svg>